# xmcd
#
# Track frame offsets: 
#        150
#        20875
#        38987
#        56852
#        72235
#        89287
#        103100
#        117285
#        137442
#        153310
#
# Disc length: 2284 seconds
#
# Revision: 5
# Processed by: cddbd v1.5.2PL0 Copyright (c) Steve Scherf et al.
# Submitted via: ExactAudioCopy v0.99pb4
#
DISCID=8908ea0a
DTITLE=Various Artist - Cobra
DYEAR=1986
DGENRE=Soundtrack
TTITLE0=Voice Of America's Sons
TTITLE1=Feel The Heat
TTITLE2=Loving On Borrowed Time
TTITLE3=Skyline
TTITLE4=Hold On To Your Vision
TTITLE5=Suave
TTITLE6=Cobra
TTITLE7=Angel Of The City
TTITLE8=Chase
TTITLE9=Two Into One
EXTD=
EXTT0=
EXTT1=
EXTT2=
EXTT3=
EXTT4=
EXTT5=
EXTT6=
EXTT7=
EXTT8=
EXTT9=
PLAYORDER=
